<?xml version="1.0" encoding="UTF-8"?>
<svg width="48px" height="48px" viewBox="0 0 48 48" version="1.1" xmlns="http://www.w3.org/2000/svg" xmlns:xlink="http://www.w3.org/1999/xlink">
    <title>icon-rounded</title>
    <g id="icon-rounded" stroke="none" stroke-width="1" fill="none" fill-rule="evenodd">
        <rect fill="#FFFFFF" x="0" y="0" width="48" height="48"></rect>
        <path d="M32,12 L32,8 C32,5.8 30.2,4 28,4 L20,4 C17.8,4 16,5.8 16,8 L16,12 L8,12 C5.8,12 4,13.8 4,16 L4,38 C4,40.2 5.8,42 8,42 L40,42 C42.2,42 44,40.2 44,38 L44,16 C44,13.8 42.2,12 40,12 L32,12 Z M20,8 L28,8 L28,12 L20,12 L20,8 Z M18,34.14 L18,19.66 C18,18.9 18.8,18.42 19.48,18.78 L31.54,25.2 C32.2,25.56 32.26,26.5 31.62,26.92 L19.56,34.96 C18.9,35.4 18,34.94 18,34.14 L18,34.14 Z" id="Shape" fill="#000000" fill-rule="nonzero"></path>
    </g>
</svg>